<svg t="1702274808989" class="icon" viewBox="0 0 1024 1024" version="1.1" xmlns="http://www.w3.org/2000/svg" p-id="6739" width="200" height="200"><path d="M1009.031529 421.165176 525.131294 17.001412c-5.586824-4.683294-13.703529-4.683294-19.290353 0L21.925647 421.165176c-4.848941 4.065882-6.671059 10.736941-4.502588 16.685176 2.153412 5.963294 7.830588 9.923765 14.140235 9.923765l71.288471 0L102.851765 951.115294c0 31.834353 25.916235 57.735529 57.765647 57.735529l230.791529 0 20.389647 0 7.770353 0c8.327529 0 15.058824-6.731294 15.058824-15.058824l0-25.705412-0.060235 0 0-137.652706 0-137.411765c0-44.619294 36.291765-80.926118 80.911059-80.926118 44.604235 0 80.941176 36.306824 80.941176 80.926118l0 137.411765 0 148.299294 0 6.144 0.060235 0.075294 0 8.839529c0 8.327529 6.731294 15.058824 15.058824 15.058824l8.854588 0 16.850824 0 233.140706 0c31.819294 0 57.735529-25.901176 57.735529-57.735529L928.120471 447.774118l71.258353 0c6.354824 0 12.001882-3.975529 14.170353-9.923765C1015.702588 431.902118 1013.910588 425.216 1009.031529 421.165176zM913.061647 417.656471c-8.327529 0-15.058824 6.731294-15.058824 15.058824L898.002824 951.115294c0 15.239529-12.378353 27.617882-27.617882 27.617882L637.229176 978.733176l-10.646588 0 0-13.086118-0.060235 0L626.522353 693.022118c0-61.229176-49.829647-111.043765-111.058824-111.043765-61.229176 0-111.028706 49.814588-111.028706 111.043765l0 285.711059-13.025882 0L160.632471 978.733176c-15.239529 0-27.648-12.378353-27.648-27.617882L132.984471 432.715294c0-8.327529-6.731294-15.058824-15.058824-15.058824L73.095529 417.656471 515.478588 48.173176l442.368 369.483294L913.061647 417.656471z" fill="#9c26b0" p-id="6740"></path></svg>