<svg t="1702274933800" class="icon" viewBox="0 0 1024 1024" version="1.1" xmlns="http://www.w3.org/2000/svg" p-id="8796" width="200" height="200"><path d="M961.394177 841.903015c-54.989161-144.109525-174.448372-259.776381-326.14261-299.596118 96.705076-45.508271 163.071305-144.109525 163.071305-257.880203 0-157.382771-127.043923-284.426694-284.426694-284.426694s-284.426694 127.043923-284.426694 284.426694c0 113.770678 66.366229 210.475754 163.071304 255.984025-153.590415 39.819737-274.945804 153.590415-326.142609 301.492296C1.928129 987.908718 102.42556 1023.936099 210.507704 1023.936099h625.738727c91.016542 1.896178 180.136906-37.923559 125.147746-182.033084zM267.393043 284.426694c0-136.524813 109.978322-246.503135 246.503135-246.503135s246.503135 109.978322 246.503135 246.503135c0 121.355389-89.120364 223.748999-204.78722 242.710779-13.273246-1.896178-28.442669-1.896178-41.715915-1.896178-13.273246 0-28.442669 0-41.715915 1.896178-115.666856-20.857958-204.78722-121.355389-204.78722-242.710779zM860.896745 986.01254H191.545925c-96.705076 0-113.770678-68.262407-73.950941-151.694237C180.168857 682.624066 329.966916 568.853388 512 568.853388c182.033084 0 333.727321 111.8745 394.405016 263.568737 47.404449 128.940101 22.754136 153.590415-45.508271 153.590415z" fill="#9c26b0" p-id="8797"></path></svg>